<svg width="20" height="32" viewBox="0 0 20 32" fill="none" xmlns="http://www.w3.org/2000/svg">
<path d="M9.79693 2.60713C12.5753 6.13431 14.0585 10.4839 14.0047 14.9471V16.0125L14.9214 16.5703C16.1057 17.2873 16.9891 18.3994 17.4104 19.7039C17.0405 19.4316 16.6535 19.1825 16.2518 18.9581L13.8073 17.5856L13.3681 20.3557C13.3301 20.6004 13.2791 20.8431 13.2153 21.0826H6.3658C6.26395 20.7693 6.18119 20.4559 6.1048 20.13L5.55098 17.6232L3.29751 18.8766C2.92103 19.0871 2.55755 19.3194 2.20897 19.5723C2.63845 18.2828 3.50333 17.177 4.65978 16.4387L5.53188 15.8809V14.8907C5.54762 10.4456 7.04861 6.12909 9.8033 2.60713H9.79693ZM9.8033 0C9.66043 0.000346939 9.52252 0.0515428 9.41499 0.144144L9.35769 0.194281C5.68693 4.23612 3.6486 9.4626 3.62853 14.8844C2.07083 15.8794 0.917796 17.3816 0.370914 19.1286C-0.175967 20.8756 -0.081917 22.7562 0.636631 24.4418C1.39358 22.796 2.65895 21.4274 4.25237 20.5311C4.41217 21.2126 4.62499 21.881 4.88895 22.5304C4.92242 22.6552 4.99662 22.7657 5.10013 22.845C5.20364 22.9242 5.33073 22.9678 5.46186 22.9691H14.2975C14.4757 22.9691 14.654 22.7998 14.7431 22.5366C15.0007 21.9193 15.1803 21.2731 15.2778 20.6126C16.8743 21.5051 18.1407 22.8748 18.8936 24.5233C19.6555 22.846 19.7734 20.9535 19.2256 19.197C18.6777 17.4406 17.5012 15.9394 15.9144 14.9722C15.9774 9.51836 13.9498 4.24159 10.2362 0.194281C10.1809 0.133409 10.1132 0.0846575 10.0375 0.0511885C9.96185 0.0177195 9.87988 0.000279777 9.79693 0L9.8033 0Z" fill="#4EA8DE"/>
<path d="M9.79688 14.3643C9.30794 14.3643 8.82994 14.2217 8.42314 13.9547C8.01634 13.6876 7.69896 13.308 7.51099 12.8636C7.32301 12.4192 7.27287 11.93 7.36688 11.4576C7.46089 10.9852 7.69485 10.5508 8.03925 10.2091C8.38366 9.86743 8.8231 9.63377 9.30218 9.53759C9.78127 9.44141 10.2786 9.48702 10.7314 9.66866C11.1841 9.8503 11.5722 10.1598 11.8466 10.5583C12.121 10.9567 12.2694 11.4262 12.2732 11.9075V11.9075C12.2808 12.2195 12.2259 12.5299 12.1116 12.8209C11.9974 13.112 11.826 13.378 11.6072 13.6038C11.3885 13.8296 11.1267 14.0108 10.8368 14.137C10.547 14.2632 10.2347 14.3319 9.91783 14.3392C9.87777 14.3455 9.83694 14.3455 9.79688 14.3392V14.3643Z" fill="#4EA8DE"/>
<path d="M13.2408 24.5296C13.0815 24.5245 12.9228 24.5509 12.774 24.6071C12.6253 24.6633 12.4894 24.7481 12.3743 24.8567C12.2593 24.9653 12.1674 25.0954 12.1042 25.2394C12.0409 25.3834 12.0075 25.5384 12.0059 25.6953V29.3929C12.0059 29.7153 12.136 30.0246 12.3676 30.2526C12.5992 30.4806 12.9133 30.6087 13.2408 30.6087C13.5683 30.6087 13.8825 30.4806 14.1141 30.2526C14.3457 30.0246 14.4758 29.7153 14.4758 29.3929V25.7454C14.4809 25.5891 14.4543 25.4334 14.3976 25.2873C14.341 25.1412 14.2553 25.0077 14.1457 24.8945C14.0361 24.7814 13.9047 24.6908 13.7592 24.6282C13.6137 24.5655 13.4569 24.532 13.2981 24.5296H13.2408Z" fill="#5E60CE"/>
<path d="M6.3658 24.5296C6.20381 24.5212 6.04176 24.5449 5.88928 24.5994C5.7368 24.6538 5.59701 24.738 5.47823 24.8467C5.35945 24.9555 5.2641 25.0866 5.19786 25.2324C5.13162 25.3782 5.09584 25.5356 5.09265 25.6953V29.3929C5.09265 29.7153 5.22276 30.0246 5.45436 30.2526C5.68596 30.4806 6.00007 30.6087 6.3276 30.6087C6.65513 30.6087 6.96925 30.4806 7.20085 30.2526C7.43245 30.0246 7.56256 29.7153 7.56256 29.3929V25.7454C7.56765 25.5891 7.54108 25.4334 7.48442 25.2873C7.42775 25.1412 7.34211 25.0077 7.2325 24.8946C7.12289 24.7814 6.99149 24.6908 6.84597 24.6282C6.70045 24.5655 6.54371 24.532 6.3849 24.5296H6.3658Z" fill="#5E60CE"/>
<path d="M9.70785 24.5296C9.54901 24.5262 9.39106 24.5538 9.24302 24.6105C9.09499 24.6673 8.95976 24.7523 8.84508 24.8605C8.7304 24.9688 8.6385 25.0982 8.57464 25.2414C8.51078 25.3847 8.47621 25.5389 8.4729 25.6953V30.7904C8.4729 31.1129 8.60301 31.4221 8.83461 31.6502C9.06621 31.8782 9.38032 32.0063 9.70785 32.0063C10.0354 32.0063 10.3495 31.8782 10.5811 31.6502C10.8127 31.4221 10.9428 31.1129 10.9428 30.7904V25.7767C10.9479 25.6204 10.9213 25.4647 10.8647 25.3186C10.808 25.1725 10.7224 25.039 10.6128 24.9259C10.5031 24.8127 10.3717 24.7222 10.2262 24.6595C10.0807 24.5968 9.92396 24.5633 9.76515 24.5609L9.70785 24.5296Z" fill="#5E60CE"/>
</svg>
